<svg width="156" height="30" viewBox="0 0 156 30" fill="none" xmlns="http://www.w3.org/2000/svg">
<path d="M1.76571 29C1.21317 28.3754 0.936906 27.6067 0.936906 26.6938C1.7537 26.6938 2.33025 26.5616 2.66658 26.2974C3.02693 26.0331 3.2071 25.5647 3.2071 24.892V7.95565C3.2071 7.28299 3.02693 6.81454 2.66658 6.55029C2.33025 6.26201 1.7537 6.11787 0.936906 6.11787C0.936906 5.70947 1.00898 5.31309 1.15312 4.92872C1.29725 4.52032 1.48944 4.15997 1.72967 3.84767C4.08395 3.84767 5.96977 3.81164 7.38714 3.73957C8.80452 3.64348 10.0177 3.59543 11.0267 3.59543C13.5731 3.59543 15.5911 3.90773 17.0805 4.53234C18.594 5.15694 19.675 6.08183 20.3237 7.30702C20.9963 8.50818 21.3326 9.98561 21.3326 11.7393C21.3326 13.3008 20.9362 14.7182 20.1435 15.9914C19.3747 17.2646 18.1976 18.2736 16.6121 19.0183C15.0506 19.739 13.0566 20.0994 10.6303 20.0994H9.11682V23.2705C9.11682 24.2074 9.21291 24.9281 9.4051 25.4325C9.62131 25.913 10.0177 26.2493 10.5942 26.4415C11.1708 26.6097 11.9876 26.6938 13.0446 26.6938C13.0446 27.6307 12.7804 28.3994 12.2518 29H1.76571ZM10.0537 17.2166C11.1828 17.2166 12.0717 17.0484 12.7203 16.7121C13.393 16.3518 13.8974 15.8953 14.2338 15.3428C14.5701 14.7903 14.7863 14.1897 14.8824 13.541C15.0025 12.8684 15.0626 12.2318 15.0626 11.6312C15.0626 10.7183 14.9184 9.86549 14.6302 9.07273C14.3659 8.27996 13.8974 7.64334 13.2248 7.16288C12.5762 6.68241 11.6513 6.44218 10.4501 6.44218C9.9216 6.44218 9.47717 6.49023 9.11682 6.58632V17.1445C9.28498 17.1686 9.44113 17.1926 9.58527 17.2166C9.72941 17.2166 9.88556 17.2166 10.0537 17.2166ZM30.847 29.3243C28.1564 29.3243 26.0063 28.4715 24.3967 26.7658C22.8112 25.0602 22.0184 22.6819 22.0184 19.6309C22.0184 17.5409 22.4148 15.7392 23.2076 14.2257C24.0003 12.6882 25.0694 11.5111 26.4147 10.6943C27.784 9.8775 29.3335 9.46911 31.0632 9.46911C33.2253 9.46911 34.9549 10.1057 36.2522 11.379C37.5735 12.6282 38.2341 14.3939 38.2341 16.6761C38.2341 17.589 38.078 18.3937 37.7657 19.0904C37.4774 19.7631 36.8648 20.0994 35.9279 20.0994H28.1443C28.2164 21.9972 28.6488 23.3425 29.4416 24.1353C30.2584 24.9281 31.3154 25.3244 32.6127 25.3244C33.4295 25.3244 34.1862 25.2043 34.8829 24.9641C35.5795 24.6998 36.2282 24.3395 36.8287 23.8831C37.045 24.0752 37.2131 24.3755 37.3332 24.7839C37.4774 25.1683 37.5494 25.4926 37.5494 25.7569C37.5494 26.1412 37.2732 26.6217 36.7206 27.1983C36.1921 27.7508 35.4234 28.2433 34.4144 28.6757C33.4295 29.1081 32.2403 29.3243 30.847 29.3243ZM28.1443 17.3607H31.7839C32.1923 17.3607 32.4445 17.2046 32.5406 16.8923C32.6607 16.58 32.7208 16.1956 32.7208 15.7392C32.7208 14.2017 32.5286 13.1927 32.1442 12.7122C31.7839 12.2078 31.3514 11.9555 30.847 11.9555C30.4386 11.9555 30.0302 12.1117 29.6218 12.424C29.2134 12.7363 28.8771 13.2888 28.6128 14.0816C28.3485 14.8503 28.1924 15.9434 28.1443 17.3607ZM47.635 29.4685C46.3377 29.4685 45.1125 29.1441 43.9594 28.4955C42.8303 27.8229 41.9174 26.8139 41.2208 25.4686C40.5241 24.1233 40.1758 22.4296 40.1758 20.3877C40.1758 17.9613 40.6202 15.9434 41.5091 14.3338C42.4219 12.7243 43.5991 11.5231 45.0405 10.7303C46.5059 9.93756 48.0674 9.54118 49.725 9.54118C50.0373 9.54118 50.3856 9.55319 50.77 9.57721C51.1544 9.60124 51.5388 9.63727 51.9231 9.68532L51.815 7.52323V5.72149C51.815 5.16895 51.6589 4.73653 51.3466 4.42423C51.0343 4.11193 50.3856 3.95578 49.4007 3.95578V2.47835C50.0013 2.14202 50.71 1.84173 51.5267 1.57748C52.3435 1.31322 53.1483 1.10902 53.9411 0.964884C54.7338 0.796722 55.3705 0.712641 55.8509 0.712641C56.4035 0.712641 56.7998 0.844768 57.0401 1.10902C57.3043 1.34926 57.4365 1.76966 57.4365 2.37024V25.0001C57.4365 26.1773 58.013 26.8739 59.1661 27.0902L59.2022 28.0991C58.8658 28.5556 58.3493 28.8919 57.6527 29.1081C56.956 29.3483 56.2473 29.4685 55.5266 29.4685C54.902 29.4685 54.2414 29.3243 53.5447 29.036C52.848 28.7718 52.3555 28.3514 52.0673 27.7748C51.5628 28.4475 50.9382 28.8919 50.1935 29.1081C49.4728 29.3483 48.6199 29.4685 47.635 29.4685ZM50.1214 26.4055C50.8661 26.4055 51.4306 26.1893 51.815 25.7569V13.1447C51.3105 12.448 50.6379 12.0997 49.7971 12.0997C49.1484 12.0997 48.5599 12.3279 48.0314 12.7843C47.5028 13.2167 47.0824 13.9494 46.7701 14.9824C46.4578 15.9914 46.3017 17.3728 46.3017 19.1265C46.3017 21.6008 46.662 23.4386 47.3827 24.6398C48.1275 25.8169 49.0403 26.4055 50.1214 26.4055ZM69.5915 29.3243C66.9009 29.3243 64.7508 28.4715 63.1412 26.7658C61.5557 25.0602 60.7629 22.6819 60.7629 19.6309C60.7629 17.5409 61.1593 15.7392 61.9521 14.2257C62.7448 12.6882 63.8139 11.5111 65.1592 10.6943C66.5285 9.8775 68.078 9.46911 69.8077 9.46911C71.9698 9.46911 73.6994 10.1057 74.9967 11.379C76.318 12.6282 76.9786 14.3939 76.9786 16.6761C76.9786 17.589 76.8225 18.3937 76.5102 19.0904C76.2219 19.7631 75.6093 20.0994 74.6724 20.0994H66.8888C66.9609 21.9972 67.3933 23.3425 68.1861 24.1353C69.0029 24.9281 70.0599 25.3244 71.3572 25.3244C72.174 25.3244 72.9307 25.2043 73.6274 24.9641C74.324 24.6998 74.9727 24.3395 75.5732 23.8831C75.7895 24.0752 75.9576 24.3755 76.0777 24.7839C76.2219 25.1683 76.2939 25.4926 76.2939 25.7569C76.2939 26.1412 76.0177 26.6217 75.4651 27.1983C74.9366 27.7508 74.1679 28.2433 73.1589 28.6757C72.174 29.1081 70.9848 29.3243 69.5915 29.3243ZM66.8888 17.3607H70.5284C70.9368 17.3607 71.189 17.2046 71.2851 16.8923C71.4052 16.58 71.4653 16.1956 71.4653 15.7392C71.4653 14.2017 71.2731 13.1927 70.8887 12.7122C70.5284 12.2078 70.0959 11.9555 69.5915 11.9555C69.1831 11.9555 68.7747 12.1117 68.3663 12.424C67.9579 12.7363 67.6216 13.2888 67.3573 14.0816C67.093 14.8503 66.9369 15.9434 66.8888 17.3607ZM79.0084 29C78.4558 28.3994 78.1796 27.6307 78.1796 26.6938C79.1645 26.6938 79.8132 26.5616 80.1255 26.2974C80.4618 26.0331 80.63 25.5647 80.63 24.892V7.95565C80.63 7.28299 80.4378 6.81454 80.0534 6.55029C79.669 6.28603 79.0925 6.1539 78.3237 6.1539C78.3237 5.26504 78.6 4.50831 79.1525 3.88371H92.9178C93.8547 3.47531 94.7676 3.27111 95.6565 3.27111C95.8727 3.65549 96.0649 4.20802 96.233 4.92872C96.4252 5.62539 96.5694 6.33408 96.6655 7.05477C96.7856 7.75145 96.8456 8.30398 96.8456 8.71238C96.5333 9.00066 96.0649 9.27692 95.4403 9.54118C94.8157 9.80543 94.2631 9.98561 93.7827 10.0817C93.5424 9.28894 93.098 8.56824 92.4494 7.91961C91.8248 7.27098 90.9119 6.94667 89.7107 6.94667H86.5397V15.3068H89.4945C90.1912 15.3068 90.6717 15.0785 90.9359 14.6221C91.2242 14.1657 91.3683 13.457 91.3683 12.496C91.8968 12.496 92.4494 12.5681 93.0259 12.7122C93.6025 12.8324 94.083 13.0245 94.4673 13.2888V19.9553C94.083 20.1955 93.6025 20.3877 93.0259 20.5318C92.4734 20.6759 91.9209 20.748 91.3683 20.748C91.3683 19.7631 91.2242 19.0664 90.9359 18.658C90.6717 18.2256 90.2032 18.0094 89.5306 18.0094H86.5397V24.4236C86.5397 25.0962 86.6838 25.6247 86.9721 26.0091C87.2604 26.3695 87.909 26.5496 88.918 26.5496H91.8008C91.8008 26.982 91.7527 27.4265 91.6566 27.8829C91.5845 28.3394 91.4164 28.7117 91.1521 29H79.0084ZM105.87 29.4685C104.164 29.4685 102.651 29.1081 101.33 28.3874C100.008 27.6427 98.9754 26.5616 98.2307 25.1443C97.51 23.7029 97.1497 21.9252 97.1497 19.8111C97.1497 17.5529 97.5341 15.6551 98.3028 14.1176C99.0715 12.5801 100.141 11.415 101.51 10.6222C102.879 9.82946 104.453 9.43307 106.23 9.43307C107.96 9.43307 109.474 9.80543 110.771 10.5502C112.092 11.2949 113.113 12.3999 113.834 13.8654C114.579 15.3068 114.951 17.0965 114.951 19.2346C114.951 21.4687 114.567 23.3545 113.798 24.892C113.029 26.4055 111.96 27.5466 110.591 28.3153C109.221 29.0841 107.648 29.4685 105.87 29.4685ZM106.158 26.8739C106.663 26.8739 107.095 26.6938 107.456 26.3334C107.84 25.9731 108.128 25.3124 108.32 24.3515C108.537 23.3666 108.645 21.9492 108.645 20.0994C108.645 17.8412 108.537 16.1356 108.32 14.9824C108.104 13.8053 107.792 13.0125 107.384 12.6041C106.975 12.1957 106.495 11.9915 105.942 11.9915C105.438 11.9915 104.993 12.1717 104.609 12.5321C104.225 12.8924 103.924 13.5651 103.708 14.55C103.516 15.535 103.42 16.9644 103.42 18.8382C103.42 21.0723 103.528 22.766 103.744 23.9191C103.984 25.0722 104.309 25.853 104.717 26.2614C105.125 26.6697 105.606 26.8739 106.158 26.8739ZM125.753 29.4685C124.047 29.4685 122.534 29.1081 121.212 28.3874C119.891 27.6427 118.858 26.5616 118.113 25.1443C117.393 23.7029 117.032 21.9252 117.032 19.8111C117.032 17.5529 117.417 15.6551 118.185 14.1176C118.954 12.5801 120.023 11.415 121.392 10.6222C122.762 9.82946 124.335 9.43307 126.113 9.43307C127.843 9.43307 129.356 9.80543 130.653 10.5502C131.975 11.2949 132.996 12.3999 133.716 13.8654C134.461 15.3068 134.833 17.0965 134.833 19.2346C134.833 21.4687 134.449 23.3545 133.68 24.892C132.912 26.4055 131.843 27.5466 130.473 28.3153C129.104 29.0841 127.53 29.4685 125.753 29.4685ZM126.041 26.8739C126.545 26.8739 126.978 26.6938 127.338 26.3334C127.723 25.9731 128.011 25.3124 128.203 24.3515C128.419 23.3666 128.527 21.9492 128.527 20.0994C128.527 17.8412 128.419 16.1356 128.203 14.9824C127.987 13.8053 127.674 13.0125 127.266 12.6041C126.858 12.1957 126.377 11.9915 125.825 11.9915C125.32 11.9915 124.876 12.1717 124.491 12.5321C124.107 12.8924 123.807 13.5651 123.591 14.55C123.398 15.535 123.302 16.9644 123.302 18.8382C123.302 21.0723 123.41 22.766 123.627 23.9191C123.867 25.0722 124.191 25.853 124.6 26.2614C125.008 26.6697 125.488 26.8739 126.041 26.8739ZM144.338 29.4685C143.041 29.4685 141.815 29.1441 140.662 28.4955C139.533 27.8229 138.62 26.8139 137.924 25.4686C137.227 24.1233 136.879 22.4296 136.879 20.3877C136.879 17.9613 137.323 15.9434 138.212 14.3338C139.125 12.7243 140.302 11.5231 141.743 10.7303C143.209 9.93756 144.77 9.54118 146.428 9.54118C146.74 9.54118 147.089 9.55319 147.473 9.57721C147.857 9.60124 148.242 9.63727 148.626 9.68532L148.518 7.52323V5.72149C148.518 5.16895 148.362 4.73653 148.049 4.42423C147.737 4.11193 147.089 3.95578 146.104 3.95578V2.47835C146.704 2.14202 147.413 1.84173 148.23 1.57748C149.046 1.31322 149.851 1.10902 150.644 0.964884C151.437 0.796722 152.073 0.712641 152.554 0.712641C153.106 0.712641 153.503 0.844768 153.743 1.10902C154.007 1.34926 154.139 1.76966 154.139 2.37024V25.0001C154.139 26.1773 154.716 26.8739 155.869 27.0902L155.905 28.0991C155.569 28.5556 155.052 28.8919 154.356 29.1081C153.659 29.3483 152.95 29.4685 152.23 29.4685C151.605 29.4685 150.944 29.3243 150.248 29.036C149.551 28.7718 149.058 28.3514 148.77 27.7748C148.266 28.4475 147.641 28.8919 146.896 29.1081C146.176 29.3483 145.323 29.4685 144.338 29.4685ZM146.824 26.4055C147.569 26.4055 148.134 26.1893 148.518 25.7569V13.1447C148.013 12.448 147.341 12.0997 146.5 12.0997C145.851 12.0997 145.263 12.3279 144.734 12.7843C144.206 13.2167 143.785 13.9494 143.473 14.9824C143.161 15.9914 143.005 17.3728 143.005 19.1265C143.005 21.6008 143.365 23.4386 144.086 24.6398C144.83 25.8169 145.743 26.4055 146.824 26.4055Z" fill="white"/>
</svg>
