<svg width="157" height="30" viewBox="0 0 157 30" fill="none" xmlns="http://www.w3.org/2000/svg">
<path d="M1.77105 29C1.21684 28.3735 0.939741 27.6024 0.939741 26.6868C1.759 26.6868 2.3373 26.5543 2.67465 26.2892C3.03609 26.0242 3.21681 25.5543 3.21681 24.8796V7.89197C3.21681 7.21728 3.03609 6.74741 2.67465 6.48236C2.3373 6.19321 1.759 6.04863 0.939741 6.04863C0.939741 5.639 1.01203 5.24142 1.1566 4.85588C1.30118 4.44625 1.49395 4.08482 1.73491 3.77157C4.09631 3.77157 5.98784 3.73543 7.4095 3.66314C8.83116 3.56675 10.048 3.51856 11.06 3.51856C13.6142 3.51856 15.6383 3.83181 17.1322 4.4583C18.6502 5.0848 19.7346 6.01249 20.3852 7.24138C21.0598 8.44618 21.3972 9.92808 21.3972 11.6871C21.3972 13.2533 20.9996 14.675 20.2044 15.9521C19.4334 17.2291 18.2527 18.2412 16.6623 18.9881C15.0961 19.711 13.0961 20.0725 10.6624 20.0725H9.1444V23.2531C9.1444 24.1929 9.24079 24.9157 9.43355 25.4218C9.65042 25.9037 10.048 26.241 10.6263 26.4338C11.2046 26.6025 12.0239 26.6868 13.0841 26.6868C13.0841 27.6265 12.819 28.3976 12.2889 29H1.77105ZM10.0841 17.1809C11.2167 17.1809 12.1082 17.0123 12.7588 16.6749C13.4335 16.3135 13.9395 15.8557 14.2768 15.3015C14.6142 14.7473 14.831 14.1449 14.9274 13.4943C15.0479 12.8196 15.1081 12.181 15.1081 11.5786C15.1081 10.663 14.9636 9.8076 14.6744 9.01243C14.4094 8.21727 13.9395 7.57872 13.2648 7.09681C12.6142 6.61489 11.6865 6.37393 10.4817 6.37393C9.95162 6.37393 9.50584 6.42212 9.1444 6.5185V17.1087C9.31307 17.1328 9.4697 17.1569 9.61427 17.1809C9.75885 17.1809 9.91547 17.1809 10.0841 17.1809ZM30.9403 29.3253C28.2415 29.3253 26.085 28.4699 24.4705 26.7591C22.8802 25.0483 22.085 22.6628 22.085 19.6026C22.085 17.5062 22.4826 15.6991 23.2778 14.181C24.073 12.6389 25.1452 11.4582 26.4946 10.6389C27.8681 9.81964 29.4222 9.41001 31.1572 9.41001C33.3258 9.41001 35.0607 10.0486 36.3619 11.3256C37.6872 12.5786 38.3498 14.3497 38.3498 16.6388C38.3498 17.5544 38.1932 18.3616 37.8799 19.0604C37.5908 19.7351 36.9763 20.0725 36.0366 20.0725H28.2295C28.3018 21.976 28.7355 23.3254 29.5307 24.1206C30.3499 24.9157 31.4102 25.3133 32.7113 25.3133C33.5306 25.3133 34.2896 25.1928 34.9884 24.9519C35.6872 24.6868 36.3378 24.3254 36.9402 23.8676C37.157 24.0603 37.3257 24.3615 37.4462 24.7712C37.5908 25.1567 37.6631 25.482 37.6631 25.7471C37.6631 26.1326 37.386 26.6145 36.8317 27.1928C36.3016 27.747 35.5306 28.241 34.5185 28.6747C33.5306 29.1084 32.3379 29.3253 30.9403 29.3253ZM28.2295 17.3255H31.88C32.2897 17.3255 32.5427 17.1689 32.6391 16.8557C32.7595 16.5424 32.8198 16.1569 32.8198 15.6991C32.8198 14.1569 32.627 13.1449 32.2415 12.663C31.88 12.1569 31.4463 11.9039 30.9403 11.9039C30.5307 11.9039 30.121 12.0606 29.7114 12.3738C29.3018 12.6871 28.9644 13.2413 28.6994 14.0364C28.4343 14.8075 28.2777 15.9039 28.2295 17.3255ZM47.7791 29.4699C46.4779 29.4699 45.249 29.1446 44.0924 28.494C42.9599 27.8193 42.0443 26.8073 41.3455 25.4579C40.6467 24.1085 40.2973 22.4098 40.2973 20.3616C40.2973 17.9279 40.7431 15.9039 41.6346 14.2894C42.5503 12.675 43.731 11.4702 45.1767 10.6751C46.6466 9.87989 48.2128 9.4823 49.8755 9.4823C50.1887 9.4823 50.5381 9.49435 50.9236 9.51845C51.3092 9.54254 51.6947 9.57869 52.0802 9.62688L51.9718 7.45825V5.65105C51.9718 5.09684 51.8152 4.66312 51.5019 4.34987C51.1887 4.03662 50.5381 3.88 49.5502 3.88V2.3981C50.1526 2.06076 50.8634 1.75956 51.6826 1.4945C52.5019 1.22945 53.3091 1.02463 54.1043 0.880057C54.8995 0.711386 55.538 0.627051 56.0199 0.627051C56.5741 0.627051 56.9717 0.759578 57.2127 1.02463C57.4777 1.26559 57.6102 1.68727 57.6102 2.28967V24.988C57.6102 26.1687 58.1885 26.8675 59.3451 27.0844L59.3813 28.0964C59.044 28.5542 58.5259 28.8916 57.8271 29.1084C57.1283 29.3494 56.4175 29.4699 55.6946 29.4699C55.0681 29.4699 54.4055 29.3253 53.7067 29.0361C53.0079 28.7711 52.514 28.3494 52.2248 27.7711C51.7188 28.4458 51.0923 28.8916 50.3453 29.1084C49.6224 29.3494 48.767 29.4699 47.7791 29.4699ZM50.273 26.3976C51.02 26.3976 51.5863 26.1808 51.9718 25.7471V13.0967C51.4658 12.3979 50.7911 12.0485 49.9477 12.0485C49.2971 12.0485 48.7068 12.2774 48.1767 12.7353C47.6466 13.169 47.2249 13.9039 46.9117 14.94C46.5984 15.9521 46.4418 17.3376 46.4418 19.0966C46.4418 21.5785 46.8032 23.4218 47.5261 24.6266C48.2731 25.8073 49.1887 26.3976 50.273 26.3976ZM69.802 29.3253C67.1033 29.3253 64.9467 28.4699 63.3323 26.7591C61.7419 25.0483 60.9468 22.6628 60.9468 19.6026C60.9468 17.5062 61.3444 15.6991 62.1395 14.181C62.9347 12.6389 64.007 11.4582 65.3563 10.6389C66.7298 9.81964 68.284 9.41001 70.0189 9.41001C72.1875 9.41001 73.9224 10.0486 75.2236 11.3256C76.5489 12.5786 77.2115 14.3497 77.2115 16.6388C77.2115 17.5544 77.0549 18.3616 76.7417 19.0604C76.4525 19.7351 75.8381 20.0725 74.8983 20.0725H67.0912C67.1635 21.976 67.5972 23.3254 68.3924 24.1206C69.2117 24.9157 70.2719 25.3133 71.5731 25.3133C72.3923 25.3133 73.1514 25.1928 73.8501 24.9519C74.5489 24.6868 75.1995 24.3254 75.8019 23.8676C76.0188 24.0603 76.1874 24.3615 76.3079 24.7712C76.4525 25.1567 76.5248 25.482 76.5248 25.7471C76.5248 26.1326 76.2477 26.6145 75.6935 27.1928C75.1634 27.747 74.3923 28.241 73.3803 28.6747C72.3923 29.1084 71.1996 29.3253 69.802 29.3253ZM67.0912 17.3255H70.7418C71.1514 17.3255 71.4044 17.1689 71.5008 16.8557C71.6213 16.5424 71.6815 16.1569 71.6815 15.6991C71.6815 14.1569 71.4887 13.1449 71.1032 12.663C70.7418 12.1569 70.308 11.9039 69.802 11.9039C69.3924 11.9039 68.9828 12.0606 68.5731 12.3738C68.1635 12.6871 67.8262 13.2413 67.5611 14.0364C67.296 14.8075 67.1394 15.9039 67.0912 17.3255ZM79.2474 29C78.6932 28.3976 78.4161 27.6265 78.4161 26.6868C79.4041 26.6868 80.0547 26.5543 80.3679 26.2892C80.7052 26.0242 80.8739 25.5543 80.8739 24.8796V7.89197C80.8739 7.21728 80.6811 6.74741 80.2956 6.48236C79.9101 6.21731 79.3318 6.08478 78.5607 6.08478C78.5607 5.19323 78.8378 4.43421 79.392 3.80771H93.199C94.1387 3.39808 95.0544 3.19327 95.9459 3.19327C96.1628 3.5788 96.3555 4.13301 96.5242 4.85588C96.717 5.55467 96.8616 6.2655 96.9579 6.98837C97.0784 7.68716 97.1387 8.24136 97.1387 8.65099C96.8254 8.94014 96.3555 9.21725 95.729 9.4823C95.1026 9.74736 94.5483 9.92808 94.0664 10.0245C93.8255 9.2293 93.3797 8.50642 92.7291 7.85583C92.1026 7.20524 91.187 6.87994 89.9822 6.87994H86.8015V15.2653H89.7653C90.4641 15.2653 90.946 15.0364 91.2111 14.5786C91.5002 14.1208 91.6448 13.4099 91.6448 12.4461C92.1749 12.4461 92.7291 12.5184 93.3074 12.663C93.8857 12.7834 94.3676 12.9762 94.7532 13.2413V19.9279C94.3676 20.1688 93.8857 20.3616 93.3074 20.5062C92.7532 20.6508 92.199 20.7231 91.6448 20.7231C91.6448 19.7351 91.5002 19.0363 91.2111 18.6267C90.946 18.193 90.4761 17.9761 89.8015 17.9761H86.8015V24.4097C86.8015 25.0844 86.9461 25.6145 87.2352 26.0001C87.5244 26.3615 88.175 26.5422 89.187 26.5422H92.0785C92.0785 26.9759 92.0303 27.4217 91.9339 27.8795C91.8617 28.3374 91.693 28.7108 91.4279 29H79.2474ZM144.775 29.4699C143.473 29.4699 142.245 29.1446 141.088 28.494C139.955 27.8193 139.04 26.8073 138.341 25.4579C137.642 24.1085 137.293 22.4098 137.293 20.3616C137.293 17.9279 137.739 15.9039 138.63 14.2894C139.546 12.675 140.726 11.4702 142.172 10.6751C143.642 9.87989 145.208 9.4823 146.871 9.4823C147.184 9.4823 147.534 9.49435 147.919 9.51845C148.305 9.54254 148.69 9.57869 149.076 9.62688L148.967 7.45825V5.65105C148.967 5.09684 148.811 4.66312 148.497 4.34987C148.184 4.03662 147.534 3.88 146.546 3.88V2.3981C147.148 2.06076 147.859 1.75956 148.678 1.4945C149.497 1.22945 150.305 1.02463 151.1 0.880057C151.895 0.711386 152.533 0.627051 153.015 0.627051C153.57 0.627051 153.967 0.759578 154.208 1.02463C154.473 1.26559 154.606 1.68727 154.606 2.28967V24.988C154.606 26.1687 155.184 26.8675 156.341 27.0844L156.377 28.0964C156.039 28.5542 155.521 28.8916 154.823 29.1084C154.124 29.3494 153.413 29.4699 152.69 29.4699C152.064 29.4699 151.401 29.3253 150.702 29.0361C150.003 28.7711 149.509 28.3494 149.22 27.7711C148.714 28.4458 148.088 28.8916 147.341 29.1084C146.618 29.3494 145.763 29.4699 144.775 29.4699ZM147.269 26.3976C148.016 26.3976 148.582 26.1808 148.967 25.7471V13.0967C148.461 12.3979 147.787 12.0485 146.943 12.0485C146.293 12.0485 145.702 12.2774 145.172 12.7353C144.642 13.169 144.22 13.9039 143.907 14.94C143.594 15.9521 143.437 17.3376 143.437 19.0966C143.437 21.5785 143.799 23.4218 144.522 24.6266C145.269 25.8073 146.184 26.3976 147.269 26.3976Z" fill="#2F2F2F"/>
<path d="M106.19 29.4699C104.48 29.4699 102.962 29.1084 101.636 28.3856C100.311 27.6386 99.2749 26.5543 98.5279 25.1326C97.8051 23.6868 97.4436 21.9038 97.4436 19.7833C97.4436 17.5183 97.8292 15.6147 98.6002 14.0726C99.3713 12.5304 100.444 11.3618 101.817 10.5666C103.191 9.77145 104.769 9.37387 106.552 9.37387C108.287 9.37387 109.805 9.74736 111.106 10.4943C112.431 11.2413 113.455 12.3497 114.178 13.8196C114.925 15.2653 115.299 17.0605 115.299 19.205C115.299 21.4459 114.913 23.3375 114.142 24.8796C113.371 26.3976 112.299 27.5422 110.925 28.3133C109.552 29.0843 107.974 29.4699 106.19 29.4699ZM106.48 26.8675C106.986 26.8675 107.419 26.6868 107.781 26.3254C108.166 25.9639 108.455 25.3013 108.648 24.3374C108.865 23.3495 108.974 21.9278 108.974 20.0725C108.974 17.8074 108.865 16.0966 108.648 14.94C108.431 13.7593 108.118 12.9642 107.708 12.5545C107.299 12.1449 106.817 11.9401 106.263 11.9401C105.757 11.9401 105.311 12.1208 104.925 12.4822C104.54 12.8437 104.239 13.5184 104.022 14.5063C103.829 15.4942 103.733 16.9279 103.733 18.8074C103.733 21.0483 103.841 22.7471 104.058 23.9037C104.299 25.0603 104.624 25.8434 105.034 26.2531C105.443 26.6627 105.925 26.8675 106.48 26.8675ZM126.133 29.4699C124.422 29.4699 122.904 29.1084 121.579 28.3856C120.254 27.6386 119.218 26.5543 118.471 25.1326C117.748 23.6868 117.386 21.9038 117.386 19.7833C117.386 17.5183 117.772 15.6147 118.543 14.0726C119.314 12.5304 120.386 11.3618 121.76 10.5666C123.133 9.77145 124.711 9.37387 126.495 9.37387C128.229 9.37387 129.748 9.74736 131.049 10.4943C132.374 11.2413 133.398 12.3497 134.121 13.8196C134.868 15.2653 135.241 17.0605 135.241 19.205C135.241 21.4459 134.856 23.3375 134.085 24.8796C133.314 26.3976 132.241 27.5422 130.868 28.3133C129.494 29.0843 127.916 29.4699 126.133 29.4699ZM126.422 26.8675C126.928 26.8675 127.362 26.6868 127.723 26.3254C128.109 25.9639 128.398 25.3013 128.591 24.3374C128.808 23.3495 128.916 21.9278 128.916 20.0725C128.916 17.8074 128.808 16.0966 128.591 14.94C128.374 13.7593 128.061 12.9642 127.651 12.5545C127.242 12.1449 126.76 11.9401 126.205 11.9401C125.699 11.9401 125.254 12.1208 124.868 12.4822C124.483 12.8437 124.181 13.5184 123.964 14.5063C123.772 15.4942 123.675 16.9279 123.675 18.8074C123.675 21.0483 123.784 22.7471 124.001 23.9037C124.242 25.0603 124.567 25.8434 124.977 26.2531C125.386 26.6627 125.868 26.8675 126.422 26.8675Z" fill="#07D2FF"/>
</svg>
